<svg width="32" height="32" fill="none" xmlns="http://www.w3.org/2000/svg"><path d="M14.504 14.836c0 4.79-2.002 7.186-6.006 7.186-.642 0-1.491-.101-2.55-.303l1.457-9.97c.07-.45.126-.803.169-1.062 1.318-.124 2.27-.187 2.854-.187.585 0 1.147.08 1.685.237.537.157.984.41 1.338.76.702.685 1.053 1.798 1.053 3.34Zm-2.678-.625c0-1.674-.464-2.511-1.392-2.511h-.13a.551.551 0 0 0-.13.015l-1.338 9.06a.19.19 0 0 0 .103.034h.104c.32 0 .649-.13.983-.39.333-.258.63-.652.89-1.18.607-1.226.91-2.901.91-5.028Zm4.447 7.626h-1.495l2.353-11.134h2.718l.597 6.36 2.42-6.36h2.275l.234 8.335c.034 1.102.26 1.821.676 2.159-.096.225-.283.443-.56.656a1.532 1.532 0 0 1-.968.322c-.368 0-.66-.068-.877-.203a1.43 1.43 0 0 1-.508-.54c-.217-.405-.325-.995-.325-1.772v-5.211l-2.562 7.388H18.64l-.91-7.575-1.457 7.575Z" fill="#2F80ED"/></svg>
